<?xml version="1.0" standalone="no"?>
<!DOCTYPE svg PUBLIC "-//W3C//DTD SVG 20010904//EN"
 "http://www.w3.org/TR/2001/REC-SVG-20010904/DTD/svg10.dtd">
<svg version="1.0" xmlns="http://www.w3.org/2000/svg"
 width="353.000000pt" height="353.000000pt" viewBox="0 0 353.000000 353.000000"
 preserveAspectRatio="xMidYMid meet">
<metadata>
Created by potrace 1.14, written by Peter Selinger 2001-2017
</metadata>
<g transform="translate(0.000000,353.000000) scale(0.100000,-0.100000)"
fill="#000000" stroke="none">
<path d="M1238 3052 c-14 -3 -13 -8 9 -40 71 -104 128 -255 138 -365 4 -34 8
-76 10 -93 4 -30 3 -32 -68 -59 -208 -81 -359 -183 -482 -326 -26 -30 -56 -52
-87 -64 -63 -23 -124 -77 -139 -122 -11 -33 -10 -37 12 -55 13 -11 37 -24 52
-30 l29 -11 -8 -71 c-30 -257 35 -434 212 -580 100 -83 285 -168 437 -200 26
-6 27 -8 28 -79 1 -77 3 -98 19 -192 28 -155 104 -317 190 -406 58 -59 154
-117 165 -99 4 6 -1 56 -10 113 -36 229 -43 299 -43 442 0 108 5 175 18 237
27 132 118 312 252 501 26 37 48 72 48 78 0 13 -88 3 -150 -18 -162 -55 -318
-191 -390 -340 -29 -61 -43 -64 -116 -28 -54 27 -99 85 -110 141 -27 145 210
299 614 400 140 34 145 35 185 19 58 -23 166 -95 291 -193 127 -100 167 -122
217 -122 69 0 91 60 59 162 -23 71 -70 157 -125 230 l-44 56 69 42 c38 23 95
67 126 98 54 54 121 167 104 177 -5 3 -24 -16 -43 -42 -90 -122 -208 -198
-387 -247 -30 -9 -147 -34 -260 -56 -243 -48 -348 -77 -490 -135 -186 -76
-287 -145 -347 -239 -73 -114 -12 -285 120 -334 61 -23 197 -38 197 -22 0 5
-6 10 -14 10 -32 0 -26 23 21 78 109 128 198 204 296 254 l60 30 -35 -44 c-98
-122 -184 -279 -220 -403 -20 -71 -23 -101 -23 -260 1 -184 9 -247 55 -425 10
-41 18 -75 17 -77 -18 -18 -118 137 -166 258 -39 98 -117 402 -107 418 9 13
-13 26 -74 46 -30 10 -105 42 -167 72 -268 130 -396 280 -410 484 -6 79 3 218
15 234 8 12 413 1 482 -12 85 -17 123 -1 219 92 47 45 104 92 126 103 l40 21
-33 1 c-43 0 -93 -27 -172 -95 -36 -31 -76 -59 -90 -62 -14 -4 -63 1 -110 11
-47 10 -123 19 -170 22 -47 2 -132 6 -190 8 -107 5 -180 20 -180 36 0 19 91
61 181 84 139 36 428 63 673 65 94 1 92 14 -7 34 -86 18 -421 19 -534 3 l-82
-12 22 26 c81 99 348 235 602 308 77 22 156 43 175 46 19 3 69 12 111 20 162
31 316 39 654 33 182 -4 339 -8 350 -11 11 -2 53 -5 94 -5 l73 -1 -63 -65
c-36 -37 -86 -77 -115 -91 -46 -23 -67 -26 -192 -29 -192 -5 -264 -27 -336
-101 -31 -32 -50 -73 -28 -62 152 77 133 73 392 81 92 3 126 9 167 27 61 26
121 86 157 159 30 59 33 88 9 95 -35 10 -260 46 -368 58 -190 20 -710 16 -787
-8 -11 -3 -32 17 -72 69 -102 135 -213 231 -340 292 -73 35 -178 64 -208 57z
m207 -135 c114 -76 305 -260 305 -295 0 -6 -3 -11 -7 -10 -12 3 -122 -21 -197
-43 -37 -11 -69 -19 -71 -17 -1 2 -6 35 -9 73 -13 138 -34 207 -88 288 -21 32
-38 61 -38 64 0 5 49 -23 105 -60z m1018 -1084 c41 -80 97 -224 97 -253 0 -20
-42 0 -105 48 -145 111 -186 139 -253 172 -39 19 -71 38 -72 41 0 4 19 10 43
13 23 4 83 20 132 35 50 16 95 30 101 30 6 1 31 -38 57 -86z"/>
</g>
</svg>
